<?xml version="1.0" encoding="UTF-8" standalone="no"?>
<!-- Created with Inkscape (http://www.inkscape.org/) -->

<svg
   width="63mm"
   height="88mm"
   viewBox="0 0 63 88"
   version="1.1"
   id="svg1"
   sodipodi:docname="hardware.svg"
   inkscape:version="1.4.3 (1:1.4.3+202512261035+0d15f75042)"
   xml:space="preserve"
   xmlns:inkscape="http://www.inkscape.org/namespaces/inkscape"
   xmlns:sodipodi="http://sodipodi.sourceforge.net/DTD/sodipodi-0.dtd"
   xmlns:xlink="http://www.w3.org/1999/xlink"
   xmlns="http://www.w3.org/2000/svg"
   xmlns:svg="http://www.w3.org/2000/svg"><sodipodi:namedview
     id="namedview1"
     pagecolor="#505050"
     bordercolor="#eeeeee"
     borderopacity="1"
     inkscape:showpageshadow="0"
     inkscape:pageopacity="0"
     inkscape:pagecheckerboard="0"
     inkscape:deskcolor="#505050"
     inkscape:document-units="mm"
     inkscape:zoom="3.016096"
     inkscape:cx="158.48302"
     inkscape:cy="175.22652"
     inkscape:window-width="2484"
     inkscape:window-height="1355"
     inkscape:window-x="76"
     inkscape:window-y="48"
     inkscape:window-maximized="1"
     inkscape:current-layer="layer1"
     showguides="false"><sodipodi:guide
       position="-226.0248,306.3559"
       orientation="0,1"
       id="guide366"
       inkscape:locked="false"
       inkscape:label=""
       inkscape:color="rgb(0,134,229)" /><sodipodi:guide
       position="-224.19063,310.38346"
       orientation="-1,0"
       id="guide370"
       inkscape:locked="false"
       inkscape:label=""
       inkscape:color="rgb(0,134,229)" /><sodipodi:guide
       position="-162.76463,310.38346"
       orientation="-1,0"
       id="guide374"
       inkscape:label=""
       inkscape:locked="false"
       inkscape:color="rgb(0,134,229)" /><sodipodi:guide
       position="-101.33862,310.38346"
       orientation="-1,0"
       id="guide375"
       inkscape:label=""
       inkscape:locked="false"
       inkscape:color="rgb(0,134,229)" /><sodipodi:guide
       position="-39.912624,310.38346"
       orientation="-1,0"
       id="guide376"
       inkscape:label=""
       inkscape:locked="false"
       inkscape:color="rgb(0,134,229)" /><sodipodi:guide
       position="-226.0248,218.3559"
       orientation="0,1"
       id="guide377"
       inkscape:label=""
       inkscape:locked="false"
       inkscape:color="rgb(0,134,229)" /><sodipodi:guide
       position="-226.0248,130.3559"
       orientation="0,1"
       id="guide378"
       inkscape:label=""
       inkscape:locked="false"
       inkscape:color="rgb(0,134,229)" /><sodipodi:guide
       position="-226.0248,42.355899"
       orientation="0,1"
       id="guide379"
       inkscape:label=""
       inkscape:locked="false"
       inkscape:color="rgb(0,134,229)" /><inkscape:page
       x="0"
       y="0"
       width="63"
       height="88"
       id="page2"
       margin="0"
       bleed="0" /><sodipodi:guide
       position="192.34119,283.96096"
       orientation="1,0"
       id="guide2"
       inkscape:locked="false" /><sodipodi:guide
       position="130.9152,262.35591"
       orientation="1,0"
       id="guide3"
       inkscape:locked="false" /><sodipodi:guide
       position="68.989206,253.78399"
       orientation="1,0"
       id="guide4"
       inkscape:locked="false" /><sodipodi:guide
       position="7.3131962,262.10591"
       orientation="1,0"
       id="guide5"
       inkscape:locked="false" /></sodipodi:namedview><defs
     id="defs1"><linearGradient
       id="swatch126"
       inkscape:swatch="solid"
       gradientTransform="matrix(1.6556714e-4,0,0,1.6556714e-4,303.98137,21.831655)"><stop
         style="stop-color:#75cbff;stop-opacity:1;"
         offset="0"
         id="stop126" /></linearGradient><linearGradient
       id="swatch128"
       inkscape:swatch="solid"
       gradientTransform="matrix(0.00792646,0,0,0.00792646,277.28966,25.76998)"><stop
         style="stop-color:#194c9b;stop-opacity:1;"
         offset="0"
         id="stop128" /></linearGradient><linearGradient
       inkscape:collect="always"
       xlink:href="#swatch129"
       id="linearGradient404"
       gradientUnits="userSpaceOnUse"
       x1="124.5"
       y1="205"
       x2="315.5"
       y2="205"
       gradientTransform="matrix(0.29838003,0,0,0.29838003,196.10639,18.356055)" /><linearGradient
       id="swatch129"
       inkscape:swatch="solid"
       gradientTransform="matrix(0.26458333,0,0,0.2083497,261.71035,21.406473)"><stop
         style="stop-color:#d5f1fd;stop-opacity:1;"
         offset="0"
         id="stop129" /></linearGradient><rect
       x="510.23624"
       y="566.92914"
       width="890.96403"
       height="58.915281"
       id="rect400" /><rect
       x="529.13385"
       y="642.51965"
       width="640.47423"
       height="336.92577"
       id="rect401" /><linearGradient
       inkscape:collect="always"
       xlink:href="#swatch128"
       id="linearGradient405"
       gradientUnits="userSpaceOnUse"
       x1="114.5"
       y1="275"
       x2="315.5"
       y2="275"
       gradientTransform="matrix(0.29838003,0,0,0.29838003,196.10639,18.356055)" /><rect
       x="491.33859"
       y="1020.4724"
       width="680.315"
       height="37.795277"
       id="rect402" /><filter
       inkscape:collect="always"
       style="color-interpolation-filters:sRGB"
       id="filter25"
       x="-0.024121532"
       y="-0.17864375"
       width="1.0457371"
       height="1.3572875"><feGaussianBlur
         inkscape:collect="always"
         stdDeviation="1.0720313"
         id="feGaussianBlur25" /></filter><rect
       x="491.33859"
       y="642.51965"
       width="1195.8481"
       height="76.068542"
       id="rect403" /><clipPath
       id="clipPath412"
       clipPathUnits="userSpaceOnUse"><path
         id="path410"
         d="M 0,792 H 792 V 0 H 0 Z" /></clipPath><filter
       inkscape:collect="always"
       style="color-interpolation-filters:sRGB"
       id="filter2"
       x="-0.12828172"
       y="-0.12828173"
       width="1.2565634"
       height="1.2565635"><feGaussianBlur
         inkscape:collect="always"
         stdDeviation="1.4662624"
         id="feGaussianBlur2" /></filter><radialGradient
       inkscape:collect="always"
       xlink:href="#linearGradient2"
       id="radialGradient405"
       gradientUnits="userSpaceOnUse"
       gradientTransform="matrix(-1.5536929,1.1973688,-0.99981902,-1.2973529,378.56186,-204.79819)"
       cx="147.81233"
       cy="-20.749382"
       fx="147.81233"
       fy="-20.749382"
       r="24.960199" /><linearGradient
       id="linearGradient2"
       inkscape:collect="always"><stop
         style="stop-color:#ffdc54;stop-opacity:1;"
         offset="0"
         id="stop2" /><stop
         style="stop-color:#5b4518;stop-opacity:1;"
         offset="1"
         id="stop3" /></linearGradient><filter
       inkscape:collect="always"
       style="color-interpolation-filters:sRGB"
       id="filter20"
       x="-0.038802817"
       y="-0.062911511"
       width="1.0776056"
       height="1.125823"><feGaussianBlur
         inkscape:collect="always"
         stdDeviation="1.0167906"
         id="feGaussianBlur20" /></filter><linearGradient
       inkscape:collect="always"
       xlink:href="#swatch128"
       id="linearGradient1"
       gradientTransform="matrix(1.6556714e-4,0,0,1.6556714e-4,303.98137,22.455325)"
       gradientUnits="userSpaceOnUse" /></defs><g
     inkscape:label="Layer 1"
     inkscape:groupmode="layer"
     id="layer1"
     transform="translate(-230.19063,-15.383459)"><image
       width="62.857143"
       height="88"
       preserveAspectRatio="none"
       xlink:href="example_image.png"
       id="illustration"
       x="230.19063"
       y="15.383459" /><path
       id="rect1"
       style="fill:#000000;stroke-width:1.5"
       d="M 230.19063,15.383459 V 103.38325 H 293.1904 V 15.383459 Z m 4.70514,3.220548 h 53.70835 l 2.61161,2.735678 v 77.578727 l -2.61161,2.735678 h -53.70835 l -2.73568,-2.735678 V 21.339685 Z"
       sodipodi:nodetypes="cccccccccccccc" /><path
       id="rect347"
       style="fill:url(#swatch126);fill-opacity:1;stroke:none;stroke-width:0.089514;stroke-miterlimit:40"
       d="M 234.89525 18.356404 L 231.91197 21.339685 L 231.91197 22.242472 L 291.58792 22.242472 L 291.58792 21.339685 L 288.60464 18.356404 L 234.89525 18.356404 z M 231.91197 60.316117 L 231.91197 98.918412 L 234.89577 101.90221 L 288.60412 101.90221 L 291.58792 98.918412 L 291.58792 60.316117 L 231.91197 60.316117 z " /><path
       style="fill:url(#swatch126);fill-opacity:1;stroke:url(#swatch128);stroke-width:0.29838;stroke-linejoin:round;stroke-miterlimit:40;stroke-dasharray:none;stroke-opacity:1"
       d="m 231.91197,97.426513 2e-5,-44.756758 2.9838,2.983804 v 5.967597"
       id="path350"
       sodipodi:nodetypes="cccc" /><path
       style="fill:#313237;fill-opacity:1;stroke:none;stroke-width:0.59676;stroke-linejoin:round;stroke-miterlimit:40;stroke-dasharray:none"
       d="m 235.92555,27.850012 -2.00868,-1.797718 c 0,0 1.40762,-3.755943 2.6554,-3.755943 1.24777,0 7.82075,-0.04214 7.82075,-0.04214 l 0.11453,2.462078 -2.70752,3.436514 -3.13416,0.420803 z"
       id="path351"
       sodipodi:nodetypes="ccsccccc" /><path
       style="fill:url(#swatch126);fill-opacity:1;stroke:url(#swatch128);stroke-width:0.29838;stroke-linejoin:round;stroke-miterlimit:40;stroke-dasharray:none;stroke-opacity:1"
       d="m 290.09602,100.41031 1.4919,-1.491898 8e-5,-46.248654 -2.9838,2.983801 v 5.9676"
       id="path352"
       sodipodi:nodetypes="ccccc" /><path
       id="path20"
       style="fill:#000000;fill-opacity:1;stroke:none;stroke-width:0.500001;stroke-miterlimit:40;stroke-dasharray:none;stroke-opacity:1;filter:url(#filter20)"
       d="m 234.89577,60.658215 -1.4919,1.491899 v 8.106482 h -3.21324 v 19.765202 h 3.21324 v 9.425781 h 56.69215 v -9.425781 h 2.98431 V 70.256596 h -2.98431 v -8.106482 l -1.4919,-1.491899 z" /><g
       id="g18"
       transform="matrix(42.153453,0,0,1.7882935,-8391.2884,-49.841111)"
       style="stroke-width:0.747792"><rect
         style="opacity:1;fill:url(#swatch129);stroke:none;stroke-width:1.12169"
         id="rect18"
         width="1.49192"
         height="11.052501"
         x="204.52605"
         y="66.861809" /><path
         id="path353-6"
         style="fill:none;fill-opacity:1;stroke:#000000;stroke-width:0.223126;stroke-linejoin:round;stroke-miterlimit:40;stroke-dasharray:none;stroke-opacity:1"
         d="m 204.52605,77.914316 h 1.49192 m -1.49192,-1.578929 h 1.49192 m -1.49192,-1.578929 h 1.49192 m -1.49192,-1.578928 h 1.49192 m -1.49192,-1.578929 h 1.49192 m -1.49192,-1.578928 h 1.49192 m -1.49192,-1.578929 h 1.49192 m -1.49192,-1.578929 h 1.49192" /></g><path
       style="fill:url(#linearGradient404);fill-opacity:1;stroke:url(#swatch128);stroke-width:0.500001;stroke-miterlimit:40;stroke-dasharray:none;stroke-opacity:1"
       d="m 234.89579,59.600092 -1.4919,1.4919 V 97.33116 H 290.0961 V 61.091992 l -1.4919,-1.4919 z"
       id="path354"
       sodipodi:nodetypes="ccccccc" /><text
       xml:space="preserve"
       transform="matrix(0.05973233,0,0,0.07894638,205.9424,16.273567)"
       id="text1"
       style="font-style:normal;font-variant:normal;font-weight:900;font-stretch:normal;font-size:42.6667px;font-family:Monkirta Pursuit NC;-inkscape-font-specification:'Monkirta Pursuit NC Bold';white-space:pre;shape-inside:url(#rect400);display:inline;fill:#000000;stroke:none;stroke-width:1.45622729;stroke-miterlimit:40;stroke-dasharray:none"><tspan
         x="510.23633"
         y="605.44823"
         id="tspan7"><tspan
           style="font-weight:normal;-inkscape-font-specification:'Monkirta Pursuit NC';stroke:#000000"
           id="tspan1">${type}</tspan><tspan
           style="font-weight:bold"
           id="tspan2">${subtypes}</tspan></tspan></text><text
       xml:space="preserve"
       transform="matrix(0.07894638,0,0,0.07894638,194.60053,17.651137)"
       id="text-body"
       style="font-style:normal;font-variant:normal;font-weight:normal;font-stretch:normal;font-size:35.7486px;line-height:1.2;font-family:Lato;-inkscape-font-specification:'Lato Bold';white-space:pre;shape-inside:url(#rect401);display:inline;fill:#000000;fill-opacity:1;stroke:none;stroke-width:7.55906;stroke-miterlimit:40;stroke-dasharray:none;stroke-opacity:1"><tspan
         x="529.13477"
         y="674.87202"
         id="tspan8">The first time each turn you breach HQ, </tspan><tspan
         x="529.13477"
         y="717.77033"
         id="tspan10">access 1 <tspan
   style="font-weight:900;-inkscape-font-specification:'Lato Heavy'"
   id="tspan9">additional</tspan> card.
</tspan><tspan
         x="529.13477"
         y="760.66865"
         id="tspan11">
</tspan><tspan
         x="529.13477"
         y="803.56696"
         id="tspan13"><tspan
           style="font-style:italic;-inkscape-font-specification:'Lato Italic'"
           id="tspan12">Flavor text is flavoring.</tspan></tspan></text><path
       id="path359"
       style="opacity:0.5;fill:none;stroke:url(#swatch126);stroke-width:0.59676;stroke-miterlimit:40;stroke-dasharray:none;stroke-opacity:1"
       d="m 259.02728,66.096866 h 12.37034 m -21.4958,-3e-6 h 7.63356 m -13.60116,0 h 4.4757 m -12.02223,-3e-6 h 6.05463" /><path
       id="path360"
       style="fill:url(#linearGradient405);fill-opacity:1;stroke:#000000;stroke-width:0.29838;stroke-miterlimit:40;stroke-dasharray:none;stroke-opacity:1"
       d="M 231.91197 97.426513 L 231.91197 98.918412 L 234.89577 101.90221 L 288.60412 101.90221 L 290.09602 100.41031 L 287.11222 97.426513 L 231.91197 97.426513 z M 230.42007 103.38326 L 230.42007 103.39411 L 290.09602 103.39411 L 290.09602 103.38326 L 230.42007 103.38326 z " /><text
       xml:space="preserve"
       transform="matrix(0.07894638,0,0,0.07894638,196.73796,18.198162)"
       id="copyright"
       style="font-style:normal;font-variant:normal;font-weight:900;font-stretch:normal;font-size:21.3333px;line-height:1.2;font-family:Lato;-inkscape-font-specification:'Lato Heavy';white-space:pre;shape-inside:url(#rect402);display:inline;fill:#ffffff;fill-opacity:1;stroke:none;stroke-width:7.55906;stroke-miterlimit:40;stroke-dasharray:none;stroke-opacity:1"><tspan
         x="491.33789"
         y="1039.8828"
         id="tspan15"><tspan
           style="font-weight:bold;font-family:Play;-inkscape-font-specification:'Play Bold'"
           id="tspan14">2024 Null Signal Games Illus. David Lei</tspan></tspan></text><path
       style="fill:url(#swatch126);fill-opacity:1;stroke:url(#swatch128);stroke-width:0.29838;stroke-linejoin:round;stroke-miterlimit:40;stroke-dasharray:none;stroke-opacity:1"
       d="m 231.91199,31.783156 2.9838,-2.9838 v -4.475701 l 4.77408,-2.08866 h 1.79028 4.47571 l -0.59677,-3.87894 h -10.4433 l -2.9838,2.9838 z"
       id="path361"
       sodipodi:nodetypes="cccccccccc" /><g
       id="g397"
       transform="matrix(0.11892912,0,0,0.11892912,242.48994,67.657941)"><g
         id="faction-symbol"
         transform="matrix(1.5203587,0,0,1.5203587,-201.18158,-138.42659)"><g
           id="g382"
           transform="matrix(0.03106195,0,0,-0.03106195,375.04074,271.90511)"
           style="stroke:#ffffff;stroke-width:32.1937;stroke-dasharray:none"><g
             clip-path="url(#clipPath412)"
             id="g381"
             style="stroke:#ffffff;stroke-width:32.1937;stroke-dasharray:none"><g
               transform="translate(203.5469,759.1592)"
               id="g372"
               style="stroke:#ffffff;stroke-width:32.1937;stroke-dasharray:none"><path
                 id="path372"
                 style="fill:#194c9b;fill-opacity:1;fill-rule:nonzero;stroke:#ffffff;stroke-width:32.1937;stroke-dasharray:none"
                 d="M 0,0 C -54.791,-1.417 -96.186,-57.803 -89.477,-125.284 -74.796,-73.448 -41.612,-33.055 0,0" /></g><g
               transform="translate(189.7065,699.8818)"
               id="g373"
               style="stroke:#ffffff;stroke-width:32.1937;stroke-dasharray:none"><path
                 id="path373"
                 style="fill:#194c9b;fill-opacity:1;fill-rule:nonzero;stroke:#ffffff;stroke-width:32.1937;stroke-dasharray:none"
                 d="M 0,0 C 26.817,21.963 58.396,37.089 89.889,46.356 102.351,50.401 114.9,53.598 127.5,55.961 74.998,76.376 18.744,40.658 -11.36,-8.803 -7.627,-5.777 -3.841,-2.841 0,0" /></g><g
               transform="translate(332.5776,642.9644)"
               id="g374"
               style="stroke:#ffffff;stroke-width:32.1937;stroke-dasharray:none"><path
                 id="path374"
                 style="fill:#194c9b;fill-opacity:1;fill-rule:nonzero;stroke:#ffffff;stroke-width:32.1937;stroke-dasharray:none"
                 d="m 0,0 c 89.226,40.948 139.007,49.202 169.155,51.123 3.63,0.289 7.225,0.509 10.775,0.643 4.75,0.178 9.407,0.2 13.991,0.099 -44.084,27.149 -95.004,42.827 -147.511,42.827 -1.206,0 -2.405,-0.03 -3.608,-0.045 -1.202,0.015 -2.401,0.045 -3.607,0.045 -96.919,0 -188.445,-53.383 -241.484,-133.835 C -168.853,-58.073 -96.41,-44.244 0,0" /></g><g
               transform="translate(470.9316,201.6396)"
               id="g375"
               style="stroke:#ffffff;stroke-width:32.1937;stroke-dasharray:none"><path
                 id="path375"
                 style="fill:#194c9b;fill-opacity:1;fill-rule:nonzero;stroke:#ffffff;stroke-width:32.1937;stroke-dasharray:none"
                 d="m 0,0 c -16.336,20.937 -38.404,46.732 -64.272,60.498 -1.124,0.598 -2.249,1.16 -3.374,1.707 3.369,-7.934 6.797,-15.353 10.192,-22.232 -2.567,-2.322 -11.9,-10.371 -26.371,-14.127 -0.965,7.62 -7.456,13.516 -15.337,13.516 -7.882,0 -14.374,-5.897 -15.338,-13.518 -14.395,3.729 -23.694,11.708 -26.371,14.129 4.034,8.451 8.1,17.637 12.054,27.521 -5.454,-1.537 -10.982,-3.575 -16.6,-6.127 l -16.479,-7.484 6.355,16.947 c 16.393,43.714 23.24,80.983 20.352,110.773 -1.282,13.214 -4.412,24.944 -9.42,35.258 -0.282,-47.869 -39.306,-86.726 -87.239,-86.726 -48.112,0 -87.255,39.138 -87.255,87.247 0,22.936 8.9,43.829 23.42,59.419 -31.203,5.437 -62.082,14.612 -84.393,35.075 -4.986,-20.716 -7.656,-42.278 -7.656,-64.425 0,-50.852 13.192,-98.603 36.298,-140.087 3.839,0.699 7.797,0.698 11.812,1.12 46.025,4.843 79.358,-39.491 69.69,-69.824 -3.324,-10.431 -6.548,-17.266 -11.27,-26.347 3.594,-11.053 8.152,-21.662 13.522,-31.78 2.821,1.19 5.921,1.85 9.181,1.85 13.076,0 23.681,-10.609 23.681,-23.688 0,-6.344 -2.503,-12.086 -6.565,-16.342 3.776,-4.314 7.731,-8.464 11.856,-12.438 4.342,5.351 10.966,8.778 18.396,8.778 13.079,0 23.684,-10.608 23.684,-23.687 0,-5.119 -1.641,-9.848 -4.402,-13.721 4.89,-2.874 9.898,-5.558 15.041,-8.023 3.066,9.526 11.992,16.43 22.546,16.43 13.076,0 23.681,-10.601 23.681,-23.687 0,-2.805 -0.512,-5.477 -1.402,-7.974 5.949,-1.257 5.861,-1.534 11.995,-2.251 0.625,10.735 13.823,21.05 24.436,21.07 11.66,0.021 23.812,-10.335 24.437,-21.07 6.135,0.717 6.047,0.994 11.995,2.251 -0.89,2.497 -1.402,5.169 -1.402,7.974 0,13.086 10.604,23.687 23.68,23.687 10.555,0 19.481,-6.904 22.547,-16.43 5.143,2.465 10.151,5.149 15.041,8.023 -2.762,3.873 -4.402,8.602 -4.402,13.721 0,13.079 10.605,23.687 23.683,23.687 7.43,0 14.055,-3.427 18.397,-8.778 4.125,3.974 8.08,8.124 11.856,12.438 -2.634,2.759 -4.605,6.145 -5.671,9.913 C 30.559,-37.104 16.152,-20.699 0,0 m -158.725,217.39 c 0,4.142 -3.357,7.5 -7.5,7.5 h -8.885 -18.97 c -4.143,0 -7.5,-3.358 -7.5,-7.5 0,-4.142 3.357,-7.5 7.5,-7.5 h 18.971 8.884 c 4.143,0 7.5,3.358 7.5,7.5 m -65.628,-37.773 c 0,4.143 -3.357,7.5 -7.5,7.5 -4.142,0 -7.5,-3.357 -7.5,-7.5 v -18.974 -8.881 c 0,-4.143 3.358,-7.5 7.5,-7.5 4.143,0 7.5,3.357 7.5,7.5 v 8.88 z m -37.772,37.773 c 0,4.142 -3.357,7.5 -7.5,7.5 h -18.97 -8.885 c -4.143,0 -7.5,-3.358 -7.5,-7.5 0,-4.142 3.357,-7.5 7.5,-7.5 h 8.884 18.971 c 4.143,0 7.5,3.358 7.5,7.5 m 95.9,-15 h -10.383 c -5.307,-19.533 -20.713,-34.94 -40.245,-40.248 v -10.38 c 0,-8.271 -6.729,-15 -15,-15 -8.271,0 -15,6.729 -15,15 v 10.382 c -19.531,5.309 -34.937,20.715 -40.244,40.246 h -10.383 c -8.271,0 -15,6.729 -15,15 0,8.271 6.729,15 15,15 h 10.387 c 4.837,17.788 18.051,32.151 35.127,38.583 4.27,-0.41 8.477,-0.786 12.613,-1.176 v -14.635 c 0,-4.143 3.358,-7.5 7.5,-7.5 4.143,0 7.5,3.357 7.5,7.5 v 13.005 c 10.222,-1.339 19.786,-3.24 28.38,-6.647 0.347,-0.138 0.682,-0.283 1.026,-0.423 8.741,-7.393 15.248,-17.35 18.336,-28.707 h 10.386 c 8.271,0 15,-6.729 15,-15 0,-8.271 -6.729,-15 -15,-15" /></g><g
               transform="translate(611.1182,316.8437)"
               id="g376"
               style="stroke:#ffffff;stroke-width:32.1937;stroke-dasharray:none"><path
                 id="path376"
                 style="fill:#194c9b;fill-opacity:1;fill-rule:nonzero;stroke:#ffffff;stroke-width:32.1937;stroke-dasharray:none"
                 d="m 0,0 c -15.196,0 -27.559,12.362 -27.559,27.557 0,6.204 2.063,11.934 5.537,16.545 l -29.986,29.985 c -0.999,-0.709 -2.015,-1.399 -3.061,-2.055 C -67.44,64.276 -81.723,61.123 -96.155,59.963 V 20.605 l 41.46,-41.459 c 1.406,-1.407 2.196,-3.314 2.196,-5.303 v -8.692 -18.085 c 11.561,-3.275 20.059,-13.915 20.059,-26.509 0,-12.029 -7.751,-22.275 -18.519,-26.026 -1.38,-0.481 -2.811,-0.852 -4.279,-1.111 -0.067,-0.012 -0.132,-0.024 -0.199,-0.035 -0.686,-0.115 -1.381,-0.204 -2.084,-0.268 -0.109,-0.01 -0.22,-0.016 -0.331,-0.025 -0.71,-0.056 -1.424,-0.092 -2.148,-0.092 -15.196,0 -27.559,12.362 -27.559,27.557 0,12.594 8.498,23.235 20.06,26.51 v 23.669 l -41.46,41.459 c -1.406,1.408 -2.196,3.315 -2.196,5.304 v 41.866 c -1.002,-0.006 -2.004,-0.011 -3.001,-0.007 -18.858,0.07 -37.739,2.608 -55.715,8.418 -4.677,1.518 -9.456,3.155 -13.84,5.426 -2.3,1.243 12.188,22.968 13.745,25.177 9.968,14.099 22.852,26.812 38.779,33.263 6.612,2.677 13.296,5.188 20.032,7.543 v 105.782 l 22.003,22.003 c -2.234,3.979 -3.513,8.561 -3.513,13.439 0,15.195 12.362,27.556 27.559,27.556 15.196,0 27.559,-12.361 27.559,-27.556 0,-15.194 -12.363,-27.555 -27.559,-27.555 -4.878,0 -9.46,1.278 -13.439,3.51 l -17.61,-17.61 v -94.635 c 9.473,2.918 19.037,5.483 28.656,7.669 v 22.647 c 0,1.989 0.79,3.897 2.196,5.303 l 40.472,40.473 c -2.218,3.969 -3.487,8.536 -3.487,13.395 0,15.195 12.362,27.557 27.558,27.557 15.197,0 27.56,-12.362 27.56,-27.557 0,-15.194 -12.363,-27.555 -27.56,-27.555 -4.895,0 -9.493,1.288 -13.481,3.535 L -52.499,171.329 V 154.87 c 13.829,2.54 27.736,4.272 41.628,5.039 0.044,0.004 0.083,0.007 0.128,0.008 -0.464,-0.009 -7.024,-33.979 -8.257,-37.47 -4.892,-13.813 -11.816,-27.512 -21.775,-38.378 L -9.952,53.246 c 3.09,1.2 6.443,1.866 9.952,1.866 15.196,0 27.56,-12.361 27.56,-27.555 C 27.56,12.362 15.196,0 0,0 m 27.559,293.376 v 0 c -30.231,45.881 -73.167,66.864 -131.266,64.152 -58.323,-2.724 -122.952,-29.604 -166.492,-49.585 -50.756,-23.293 -95.254,-38.549 -132.257,-45.346 -46.739,-8.583 -80.588,-3.153 -100.605,16.144 -14.399,13.882 -21.215,34.475 -20.256,61.208 0.421,11.741 2.367,24.863 5.817,39.285 -6.308,-10.783 -11.588,-21.414 -15.814,-31.849 -10.474,-25.864 -14.253,-49.981 -11.232,-71.682 4.009,-28.805 19.827,-52.594 47.016,-70.708 18.929,-12.613 56.504,-18.759 92.842,-24.703 38.313,-6.268 77.931,-12.748 101.161,-27.594 31.628,-20.213 49.425,-49.904 52.897,-88.248 2.212,-24.429 -1.311,-52.316 -10.756,-84.85 5.692,0.901 11.199,1.328 16.54,1.328 52.819,0 89.102,-41.753 121.767,-79.339 6.466,-7.44 13.152,-15.133 19.723,-22.222 16.741,-18.058 32.393,-26.354 46.502,-24.655 26.012,3.131 49.447,39.639 66.957,71.095 31.671,56.896 52.065,122.375 57.422,184.374 6.125,70.872 -7.695,134.22 -39.966,183.195" /></g><g
               transform="translate(551.1182,249.9561)"
               id="g377"
               style="stroke:#ffffff;stroke-width:32.1937;stroke-dasharray:none"><path
                 id="path377"
                 style="fill:#194c9b;fill-opacity:1;fill-rule:nonzero;stroke:#ffffff;stroke-width:32.1937;stroke-dasharray:none"
                 d="m 0,0 c -2.843,0 -5.46,-0.961 -7.567,-2.559 -0.035,-0.026 -0.07,-0.051 -0.105,-0.078 -0.228,-0.177 -0.449,-0.362 -0.665,-0.554 -0.06,-0.054 -0.12,-0.109 -0.18,-0.164 -0.198,-0.184 -0.391,-0.372 -0.578,-0.567 -0.067,-0.071 -0.132,-0.145 -0.198,-0.218 -0.175,-0.193 -0.349,-0.387 -0.512,-0.591 -0.062,-0.078 -0.119,-0.161 -0.179,-0.24 -0.271,-0.355 -0.523,-0.725 -0.755,-1.109 -0.082,-0.136 -0.17,-0.269 -0.248,-0.407 -0.086,-0.157 -0.161,-0.319 -0.242,-0.479 -0.091,-0.181 -0.183,-0.363 -0.265,-0.551 -0.069,-0.156 -0.13,-0.315 -0.193,-0.474 -0.079,-0.201 -0.155,-0.404 -0.223,-0.609 -0.052,-0.156 -0.101,-0.313 -0.147,-0.471 -0.063,-0.222 -0.121,-0.447 -0.172,-0.673 -0.036,-0.151 -0.071,-0.3 -0.1,-0.452 -0.049,-0.255 -0.085,-0.515 -0.118,-0.775 -0.017,-0.13 -0.038,-0.258 -0.051,-0.389 -0.037,-0.394 -0.061,-0.792 -0.061,-1.196 0,-6.923 5.634,-12.556 12.559,-12.556 0.394,0 0.782,0.022 1.167,0.059 0.224,0.021 0.441,0.057 0.661,0.089 0.142,0.022 0.283,0.039 0.423,0.065 0.293,0.053 0.579,0.121 0.863,0.194 0.049,0.013 0.099,0.024 0.147,0.037 5.347,1.441 9.299,6.317 9.299,12.112 C 12.56,-5.633 6.926,0 0,0" /></g><g
               transform="translate(558.5713,597.2529)"
               id="g378"
               style="stroke:#ffffff;stroke-width:32.1937;stroke-dasharray:none"><path
                 id="path378"
                 style="fill:#194c9b;fill-opacity:1;fill-rule:nonzero;stroke:#ffffff;stroke-width:32.1937;stroke-dasharray:none"
                 d="m 0,0 c 0,6.923 -5.634,12.556 -12.56,12.556 -6.924,0 -12.558,-5.633 -12.558,-12.556 0,-6.923 5.634,-12.556 12.558,-12.556 C -5.634,-12.556 0,-6.923 0,0" /></g><g
               transform="translate(611.1182,356.9561)"
               id="g379"
               style="stroke:#ffffff;stroke-width:32.1937;stroke-dasharray:none"><path
                 id="path379"
                 style="fill:#194c9b;fill-opacity:1;fill-rule:nonzero;stroke:#ffffff;stroke-width:32.1937;stroke-dasharray:none"
                 d="m 0,0 c -6.925,0 -12.559,-5.633 -12.559,-12.556 0,-6.923 5.634,-12.556 12.559,-12.556 6.926,0 12.56,5.633 12.56,12.556 C 12.56,-5.633 6.926,0 0,0" /></g><g
               transform="translate(610.3584,537.8945)"
               id="g380"
               style="stroke:#ffffff;stroke-width:32.1937;stroke-dasharray:none"><path
                 id="path380"
                 style="fill:#194c9b;fill-opacity:1;fill-rule:nonzero;stroke:#ffffff;stroke-width:32.1937;stroke-dasharray:none"
                 d="m 0,0 c 6.926,0 12.56,5.632 12.56,12.556 0,6.923 -5.634,12.556 -12.56,12.556 -6.925,0 -12.559,-5.633 -12.559,-12.556 C -12.559,5.632 -6.925,0 0,0" /></g></g></g><g
           id="g393"
           transform="matrix(0.03106195,0,0,-0.03106195,375.04074,271.90511)"
           style="stroke-width:11.3572"><g
             clip-path="url(#clipPath412)"
             id="g392"
             style="stroke-width:11.3572"><g
               transform="translate(203.5469,759.1592)"
               id="g383"
               style="stroke-width:11.3572"><path
                 id="path382"
                 style="fill:#194c9b;fill-opacity:1;fill-rule:nonzero;stroke:none;stroke-width:11.3572"
                 d="M 0,0 C -54.791,-1.417 -96.186,-57.803 -89.477,-125.284 -74.796,-73.448 -41.612,-33.055 0,0" /></g><g
               transform="translate(189.7065,699.8818)"
               id="g384"
               style="stroke-width:11.3572"><path
                 id="path383"
                 style="fill:#194c9b;fill-opacity:1;fill-rule:nonzero;stroke:none;stroke-width:11.3572"
                 d="M 0,0 C 26.817,21.963 58.396,37.089 89.889,46.356 102.351,50.401 114.9,53.598 127.5,55.961 74.998,76.376 18.744,40.658 -11.36,-8.803 -7.627,-5.777 -3.841,-2.841 0,0" /></g><g
               transform="translate(332.5776,642.9644)"
               id="g385"
               style="stroke-width:11.3572"><path
                 id="path384"
                 style="fill:#194c9b;fill-opacity:1;fill-rule:nonzero;stroke:none;stroke-width:11.3572"
                 d="m 0,0 c 89.226,40.948 139.007,49.202 169.155,51.123 3.63,0.289 7.225,0.509 10.775,0.643 4.75,0.178 9.407,0.2 13.991,0.099 -44.084,27.149 -95.004,42.827 -147.511,42.827 -1.206,0 -2.405,-0.03 -3.608,-0.045 -1.202,0.015 -2.401,0.045 -3.607,0.045 -96.919,0 -188.445,-53.383 -241.484,-133.835 C -168.853,-58.073 -96.41,-44.244 0,0" /></g><g
               transform="translate(470.9316,201.6396)"
               id="g386"
               style="stroke-width:11.3572"><path
                 id="path385"
                 style="fill:#194c9b;fill-opacity:1;fill-rule:nonzero;stroke:none;stroke-width:11.3572"
                 d="m 0,0 c -16.336,20.937 -38.404,46.732 -64.272,60.498 -1.124,0.598 -2.249,1.16 -3.374,1.707 3.369,-7.934 6.797,-15.353 10.192,-22.232 -2.567,-2.322 -11.9,-10.371 -26.371,-14.127 -0.965,7.62 -7.456,13.516 -15.337,13.516 -7.882,0 -14.374,-5.897 -15.338,-13.518 -14.395,3.729 -23.694,11.708 -26.371,14.129 4.034,8.451 8.1,17.637 12.054,27.521 -5.454,-1.537 -10.982,-3.575 -16.6,-6.127 l -16.479,-7.484 6.355,16.947 c 16.393,43.714 23.24,80.983 20.352,110.773 -1.282,13.214 -4.412,24.944 -9.42,35.258 -0.282,-47.869 -39.306,-86.726 -87.239,-86.726 -48.112,0 -87.255,39.138 -87.255,87.247 0,22.936 8.9,43.829 23.42,59.419 -31.203,5.437 -62.082,14.612 -84.393,35.075 -4.986,-20.716 -7.656,-42.278 -7.656,-64.425 0,-50.852 13.192,-98.603 36.298,-140.087 3.839,0.699 7.797,0.698 11.812,1.12 46.025,4.843 79.358,-39.491 69.69,-69.824 -3.324,-10.431 -6.548,-17.266 -11.27,-26.347 3.594,-11.053 8.152,-21.662 13.522,-31.78 2.821,1.19 5.921,1.85 9.181,1.85 13.076,0 23.681,-10.609 23.681,-23.688 0,-6.344 -2.503,-12.086 -6.565,-16.342 3.776,-4.314 7.731,-8.464 11.856,-12.438 4.342,5.351 10.966,8.778 18.396,8.778 13.079,0 23.684,-10.608 23.684,-23.687 0,-5.119 -1.641,-9.848 -4.402,-13.721 4.89,-2.874 9.898,-5.558 15.041,-8.023 3.066,9.526 11.992,16.43 22.546,16.43 13.076,0 23.681,-10.601 23.681,-23.687 0,-2.805 -0.512,-5.477 -1.402,-7.974 5.949,-1.257 5.861,-1.534 11.995,-2.251 0.625,10.735 13.823,21.05 24.436,21.07 11.66,0.021 23.812,-10.335 24.437,-21.07 6.135,0.717 6.047,0.994 11.995,2.251 -0.89,2.497 -1.402,5.169 -1.402,7.974 0,13.086 10.604,23.687 23.68,23.687 10.555,0 19.481,-6.904 22.547,-16.43 5.143,2.465 10.151,5.149 15.041,8.023 -2.762,3.873 -4.402,8.602 -4.402,13.721 0,13.079 10.605,23.687 23.683,23.687 7.43,0 14.055,-3.427 18.397,-8.778 4.125,3.974 8.08,8.124 11.856,12.438 -2.634,2.759 -4.605,6.145 -5.671,9.913 C 30.559,-37.104 16.152,-20.699 0,0 m -158.725,217.39 c 0,4.142 -3.357,7.5 -7.5,7.5 h -8.885 -18.97 c -4.143,0 -7.5,-3.358 -7.5,-7.5 0,-4.142 3.357,-7.5 7.5,-7.5 h 18.971 8.884 c 4.143,0 7.5,3.358 7.5,7.5 m -65.628,-37.773 c 0,4.143 -3.357,7.5 -7.5,7.5 -4.142,0 -7.5,-3.357 -7.5,-7.5 v -18.974 -8.881 c 0,-4.143 3.358,-7.5 7.5,-7.5 4.143,0 7.5,3.357 7.5,7.5 v 8.88 z m -37.772,37.773 c 0,4.142 -3.357,7.5 -7.5,7.5 h -18.97 -8.885 c -4.143,0 -7.5,-3.358 -7.5,-7.5 0,-4.142 3.357,-7.5 7.5,-7.5 h 8.884 18.971 c 4.143,0 7.5,3.358 7.5,7.5 m 95.9,-15 h -10.383 c -5.307,-19.533 -20.713,-34.94 -40.245,-40.248 v -10.38 c 0,-8.271 -6.729,-15 -15,-15 -8.271,0 -15,6.729 -15,15 v 10.382 c -19.531,5.309 -34.937,20.715 -40.244,40.246 h -10.383 c -8.271,0 -15,6.729 -15,15 0,8.271 6.729,15 15,15 h 10.387 c 4.837,17.788 18.051,32.151 35.127,38.583 4.27,-0.41 8.477,-0.786 12.613,-1.176 v -14.635 c 0,-4.143 3.358,-7.5 7.5,-7.5 4.143,0 7.5,3.357 7.5,7.5 v 13.005 c 10.222,-1.339 19.786,-3.24 28.38,-6.647 0.347,-0.138 0.682,-0.283 1.026,-0.423 8.741,-7.393 15.248,-17.35 18.336,-28.707 h 10.386 c 8.271,0 15,-6.729 15,-15 0,-8.271 -6.729,-15 -15,-15" /></g><g
               transform="translate(611.1182,316.8437)"
               id="g387"
               style="stroke-width:11.3572"><path
                 id="path386"
                 style="fill:#194c9b;fill-opacity:1;fill-rule:nonzero;stroke:none;stroke-width:11.3572"
                 d="m 0,0 c -15.196,0 -27.559,12.362 -27.559,27.557 0,6.204 2.063,11.934 5.537,16.545 l -29.986,29.985 c -0.999,-0.709 -2.015,-1.399 -3.061,-2.055 C -67.44,64.276 -81.723,61.123 -96.155,59.963 V 20.605 l 41.46,-41.459 c 1.406,-1.407 2.196,-3.314 2.196,-5.303 v -8.692 -18.085 c 11.561,-3.275 20.059,-13.915 20.059,-26.509 0,-12.029 -7.751,-22.275 -18.519,-26.026 -1.38,-0.481 -2.811,-0.852 -4.279,-1.111 -0.067,-0.012 -0.132,-0.024 -0.199,-0.035 -0.686,-0.115 -1.381,-0.204 -2.084,-0.268 -0.109,-0.01 -0.22,-0.016 -0.331,-0.025 -0.71,-0.056 -1.424,-0.092 -2.148,-0.092 -15.196,0 -27.559,12.362 -27.559,27.557 0,12.594 8.498,23.235 20.06,26.51 v 23.669 l -41.46,41.459 c -1.406,1.408 -2.196,3.315 -2.196,5.304 v 41.866 c -1.002,-0.006 -2.004,-0.011 -3.001,-0.007 -18.858,0.07 -37.739,2.608 -55.715,8.418 -4.677,1.518 -9.456,3.155 -13.84,5.426 -2.3,1.243 12.188,22.968 13.745,25.177 9.968,14.099 22.852,26.812 38.779,33.263 6.612,2.677 13.296,5.188 20.032,7.543 v 105.782 l 22.003,22.003 c -2.234,3.979 -3.513,8.561 -3.513,13.439 0,15.195 12.362,27.556 27.559,27.556 15.196,0 27.559,-12.361 27.559,-27.556 0,-15.194 -12.363,-27.555 -27.559,-27.555 -4.878,0 -9.46,1.278 -13.439,3.51 l -17.61,-17.61 v -94.635 c 9.473,2.918 19.037,5.483 28.656,7.669 v 22.647 c 0,1.989 0.79,3.897 2.196,5.303 l 40.472,40.473 c -2.218,3.969 -3.487,8.536 -3.487,13.395 0,15.195 12.362,27.557 27.558,27.557 15.197,0 27.56,-12.362 27.56,-27.557 0,-15.194 -12.363,-27.555 -27.56,-27.555 -4.895,0 -9.493,1.288 -13.481,3.535 L -52.499,171.329 V 154.87 c 13.829,2.54 27.736,4.272 41.628,5.039 0.044,0.004 0.083,0.007 0.128,0.008 -0.464,-0.009 -7.024,-33.979 -8.257,-37.47 -4.892,-13.813 -11.816,-27.512 -21.775,-38.378 L -9.952,53.246 c 3.09,1.2 6.443,1.866 9.952,1.866 15.196,0 27.56,-12.361 27.56,-27.555 C 27.56,12.362 15.196,0 0,0 m 27.559,293.376 v 0 c -30.231,45.881 -73.167,66.864 -131.266,64.152 -58.323,-2.724 -122.952,-29.604 -166.492,-49.585 -50.756,-23.293 -95.254,-38.549 -132.257,-45.346 -46.739,-8.583 -80.588,-3.153 -100.605,16.144 -14.399,13.882 -21.215,34.475 -20.256,61.208 0.421,11.741 2.367,24.863 5.817,39.285 -6.308,-10.783 -11.588,-21.414 -15.814,-31.849 -10.474,-25.864 -14.253,-49.981 -11.232,-71.682 4.009,-28.805 19.827,-52.594 47.016,-70.708 18.929,-12.613 56.504,-18.759 92.842,-24.703 38.313,-6.268 77.931,-12.748 101.161,-27.594 31.628,-20.213 49.425,-49.904 52.897,-88.248 2.212,-24.429 -1.311,-52.316 -10.756,-84.85 5.692,0.901 11.199,1.328 16.54,1.328 52.819,0 89.102,-41.753 121.767,-79.339 6.466,-7.44 13.152,-15.133 19.723,-22.222 16.741,-18.058 32.393,-26.354 46.502,-24.655 26.012,3.131 49.447,39.639 66.957,71.095 31.671,56.896 52.065,122.375 57.422,184.374 6.125,70.872 -7.695,134.22 -39.966,183.195" /></g><g
               transform="translate(551.1182,249.9561)"
               id="g388"
               style="stroke-width:11.3572"><path
                 id="path387"
                 style="fill:#194c9b;fill-opacity:1;fill-rule:nonzero;stroke:none;stroke-width:11.3572"
                 d="m 0,0 c -2.843,0 -5.46,-0.961 -7.567,-2.559 -0.035,-0.026 -0.07,-0.051 -0.105,-0.078 -0.228,-0.177 -0.449,-0.362 -0.665,-0.554 -0.06,-0.054 -0.12,-0.109 -0.18,-0.164 -0.198,-0.184 -0.391,-0.372 -0.578,-0.567 -0.067,-0.071 -0.132,-0.145 -0.198,-0.218 -0.175,-0.193 -0.349,-0.387 -0.512,-0.591 -0.062,-0.078 -0.119,-0.161 -0.179,-0.24 -0.271,-0.355 -0.523,-0.725 -0.755,-1.109 -0.082,-0.136 -0.17,-0.269 -0.248,-0.407 -0.086,-0.157 -0.161,-0.319 -0.242,-0.479 -0.091,-0.181 -0.183,-0.363 -0.265,-0.551 -0.069,-0.156 -0.13,-0.315 -0.193,-0.474 -0.079,-0.201 -0.155,-0.404 -0.223,-0.609 -0.052,-0.156 -0.101,-0.313 -0.147,-0.471 -0.063,-0.222 -0.121,-0.447 -0.172,-0.673 -0.036,-0.151 -0.071,-0.3 -0.1,-0.452 -0.049,-0.255 -0.085,-0.515 -0.118,-0.775 -0.017,-0.13 -0.038,-0.258 -0.051,-0.389 -0.037,-0.394 -0.061,-0.792 -0.061,-1.196 0,-6.923 5.634,-12.556 12.559,-12.556 0.394,0 0.782,0.022 1.167,0.059 0.224,0.021 0.441,0.057 0.661,0.089 0.142,0.022 0.283,0.039 0.423,0.065 0.293,0.053 0.579,0.121 0.863,0.194 0.049,0.013 0.099,0.024 0.147,0.037 5.347,1.441 9.299,6.317 9.299,12.112 C 12.56,-5.633 6.926,0 0,0" /></g><g
               transform="translate(558.5713,597.2529)"
               id="g389"
               style="stroke-width:11.3572"><path
                 id="path388"
                 style="fill:#194c9b;fill-opacity:1;fill-rule:nonzero;stroke:none;stroke-width:11.3572"
                 d="m 0,0 c 0,6.923 -5.634,12.556 -12.56,12.556 -6.924,0 -12.558,-5.633 -12.558,-12.556 0,-6.923 5.634,-12.556 12.558,-12.556 C -5.634,-12.556 0,-6.923 0,0" /></g><g
               transform="translate(611.1182,356.9561)"
               id="g390"
               style="stroke-width:11.3572"><path
                 id="path389"
                 style="fill:#194c9b;fill-opacity:1;fill-rule:nonzero;stroke:none;stroke-width:11.3572"
                 d="m 0,0 c -6.925,0 -12.559,-5.633 -12.559,-12.556 0,-6.923 5.634,-12.556 12.559,-12.556 6.926,0 12.56,5.633 12.56,12.556 C 12.56,-5.633 6.926,0 0,0" /></g><g
               transform="translate(610.3584,537.8945)"
               id="g391"
               style="stroke-width:11.3572"><path
                 id="path390"
                 style="fill:#194c9b;fill-opacity:1;fill-rule:nonzero;stroke:none;stroke-width:11.3572"
                 d="m 0,0 c 6.926,0 12.56,5.632 12.56,12.556 0,6.923 -5.634,12.556 -12.56,12.556 -6.925,0 -12.559,-5.633 -12.559,-12.556 C -12.559,5.632 -6.925,0 0,0" /></g></g></g></g><g
         id="influence-pips"><ellipse
           style="fill:url(#swatch128);fill-opacity:1;stroke:url(#swatch128);stroke-width:1.5;stroke-linecap:square;stroke-miterlimit:40000;stroke-dasharray:none;stroke-opacity:1"
           id="ellipse372"
           cx="386.621"
           cy="226.89676"
           rx="5"
           ry="4.9999995" /><ellipse
           style="fill:url(#swatch128);fill-opacity:1;stroke:url(#swatch128);stroke-width:1.5;stroke-linecap:square;stroke-miterlimit:40000;stroke-dasharray:none;stroke-opacity:1"
           id="ellipse394"
           cx="386.621"
           cy="211.02174"
           rx="5"
           ry="4.9999995" /><ellipse
           style="opacity:0.3;fill:none;fill-opacity:1;stroke:url(#swatch128);stroke-width:2;stroke-linecap:square;stroke-miterlimit:40000;stroke-dasharray:none;stroke-opacity:1"
           id="ellipse395"
           cx="386.621"
           cy="195.14673"
           rx="5"
           ry="4.9999995" /><ellipse
           style="opacity:0.3;fill:none;fill-opacity:1;stroke:url(#swatch128);stroke-width:2;stroke-linecap:square;stroke-miterlimit:40000;stroke-dasharray:none;stroke-opacity:1"
           id="ellipse396"
           cx="386.621"
           cy="179.27171"
           rx="5"
           ry="4.9999995" /><ellipse
           style="opacity:0.3;fill:none;fill-opacity:1;stroke:url(#swatch128);stroke-width:2;stroke-linecap:square;stroke-miterlimit:40000;stroke-dasharray:none;stroke-opacity:1"
           id="ellipse397"
           cx="386.621"
           cy="163.3967"
           rx="5"
           ry="4.9999995" /></g></g><g
       id="g366"
       transform="matrix(0.25665947,0,0,0.25665947,191.42089,19.525457)"><ellipse
         style="mix-blend-mode:normal;fill:#000000;fill-opacity:1;stroke:#000000;stroke-width:5;stroke-miterlimit:40;stroke-dasharray:none;stroke-opacity:1;filter:url(#filter2)"
         id="ellipse362"
         cx="181.76665"
         cy="17.058334"
         rx="23.460199"
         ry="23.460197" /><ellipse
         style="fill:#000000;fill-opacity:1;stroke:url(#radialGradient405);stroke-width:3;stroke-miterlimit:40;stroke-dasharray:none;stroke-opacity:1"
         id="ellipse363"
         cx="180.70833"
         cy="16"
         rx="23.460199"
         ry="23.460197" /><text
         xml:space="preserve"
         style="font-style:normal;font-variant:normal;font-weight:bold;font-stretch:normal;font-size:23.3665px;line-height:1.2;font-family:Play;-inkscape-font-specification:'Play Bold';text-align:center;text-anchor:middle;fill:#ffffff;fill-opacity:1;stroke:none;stroke-width:13.3374;stroke-miterlimit:40;stroke-dasharray:none;stroke-opacity:1"
         x="181.15021"
         y="22.668184"
         id="cost"><tspan
           sodipodi:role="line"
           id="tspan363"
           style="font-style:normal;font-variant:normal;font-weight:normal;font-stretch:normal;font-size:23.3665px;font-family:'Monkirta Pursuit NC';-inkscape-font-specification:'Monkirta Pursuit NC';fill:#ffffff;stroke:none;stroke-width:13.3374"
           x="181.15021"
           y="22.668184">10</tspan></text><path
         id="path363"
         d="m 195.42598,10.172761 3.67866,3.057102 v 5.540286 l -3.67866,3.05709 -3.67867,-3.05709 v -5.540286 z m -2.60748,8.234252 2.60748,2.166907 v -4.544652 l 2.60747,-2.166918 v -0.269399 l -2.60747,-2.166912 -2.60748,2.166912 z"
         style="opacity:0.4;mix-blend-mode:normal;fill:#ffffff;fill-opacity:1;stroke-width:0.192952" /><path
         style="opacity:0.3;fill:none;fill-opacity:1;stroke:#ffffff;stroke-width:1.09262;stroke-miterlimit:40;stroke-dasharray:none;stroke-opacity:1"
         id="path364"
         sodipodi:type="arc"
         sodipodi:cx="180.80484"
         sodipodi:cy="16"
         sodipodi:rx="16.452961"
         sodipodi:ry="16.452961"
         sodipodi:start="1.5707963"
         sodipodi:end="4.712389"
         sodipodi:arc-type="arc"
         d="m 180.80484,32.452961 a 16.452961,16.452961 0 0 1 -14.24868,-8.22648 16.452961,16.452961 0 0 1 0,-16.4529615 16.452961,16.452961 0 0 1 14.24868,-8.22648047"
         sodipodi:open="true" /><path
         style="opacity:0.3;fill:none;fill-opacity:1;stroke:#ffffff;stroke-width:1.09262;stroke-miterlimit:40;stroke-dasharray:4.37048, 1.09262;stroke-dashoffset:0;stroke-opacity:1"
         id="path365"
         sodipodi:type="arc"
         sodipodi:cx="180.80484"
         sodipodi:cy="16"
         sodipodi:rx="16.452961"
         sodipodi:ry="16.452961"
         sodipodi:start="4.712389"
         sodipodi:end="5.7595865"
         sodipodi:arc-type="arc"
         d="M 180.80484,-0.45296097 A 16.452961,16.452961 0 0 1 195.05352,7.7735191"
         sodipodi:open="true" /><path
         style="opacity:0.3;fill:none;fill-opacity:1;stroke:#ffffff;stroke-width:1.09262;stroke-miterlimit:40;stroke-dasharray:4.37048, 1.09262;stroke-dashoffset:0;stroke-opacity:1"
         id="path366"
         sodipodi:type="arc"
         sodipodi:cx="180.80939"
         sodipodi:cy="-16.000019"
         sodipodi:rx="16.452961"
         sodipodi:ry="16.452961"
         sodipodi:start="4.712389"
         sodipodi:end="5.7595865"
         sodipodi:arc-type="arc"
         d="m 180.80939,-32.45298 a 16.452961,16.452961 0 0 1 14.24868,8.22648"
         sodipodi:open="true"
         transform="scale(1,-1)" /></g><g
       id="g370"
       transform="matrix(0.29838003,0,0,0.29838003,181.18739,16.256533)"><path
         style="fill:#ffffff;fill-opacity:1;stroke:url(#linearGradient1);stroke-width:1.5;stroke-miterlimit:40;stroke-dasharray:none"
         d="M 369.70834,25.623669 H 214.41666 l -10,-9.999999 10,-10.0000026 150.29168,1.3e-6 5,5.0000003 z"
         id="path1"
         sodipodi:nodetypes="ccccccc" /><path
         style="opacity:0.4;fill:#000000;fill-opacity:1;stroke:#000000;stroke-width:2;stroke-miterlimit:40;stroke-dasharray:none;stroke-opacity:1;filter:url(#filter25)"
         d="M 368.65,25.529166 H 213.35832 l -10,-9.999999 10,-10.0000017 150.29168,1.3e-6 5,4.9999994 z"
         id="path367"
         sodipodi:nodetypes="ccccccc" /><path
         style="fill:#ffffff;fill-opacity:1;stroke:url(#swatch126);stroke-width:1.5;stroke-miterlimit:40;stroke-dasharray:none;stroke-opacity:1"
         d="M 369.70834,24.999999 H 214.41666 l -10,-9.999999 10,-10.0000014 150.29168,1.3e-6 5,4.9999998 z"
         id="path368"
         sodipodi:nodetypes="ccccccc" /><text
         xml:space="preserve"
         transform="matrix(0.21518877,0,0,0.21518877,113.84872,-128.87116)"
         id="name"
         style="font-style:normal;font-variant:normal;font-weight:normal;font-stretch:normal;font-size:49.4486px;font-family:Cardo;-inkscape-font-specification:Cardo;letter-spacing:0px;white-space:pre;shape-inside:url(#rect403);display:inline;fill:#000000;fill-opacity:1;stroke:#000000;stroke-width:1.29914;stroke-linejoin:round;stroke-miterlimit:40;stroke-dasharray:none;stroke-opacity:1"><tspan
           x="491.33789"
           y="684.86424"
           id="tspan23"><tspan
             style="font-weight:bold;-inkscape-font-specification:'Cardo Bold'"
             id="tspan16">D</tspan><tspan
             style="font-weight:bold;font-size:38.4601px;-inkscape-font-specification:'Cardo Bold'"
             id="tspan17">IAMANTE</tspan><tspan
             style="font-weight:bold;-inkscape-font-specification:'Cardo Bold'"
             id="tspan18"> </tspan><tspan
             style="font-weight:bold;font-size:38.4601px;-inkscape-font-specification:'Cardo Bold'"
             id="tspan19">DI</tspan><tspan
             style="font-weight:bold;-inkscape-font-specification:'Cardo Bold'"
             id="tspan20"> M</tspan><tspan
             style="font-weight:bold;font-size:38.4601px;-inkscape-font-specification:'Cardo Bold'"
             id="tspan21">EMORIA</tspan><tspan
             style="font-weight:bold;-inkscape-font-specification:'Cardo Bold'"
             id="tspan22"> T400</tspan></tspan></text></g><rect
       style="fill:#000000;fill-opacity:1;stroke:none;stroke-width:2.9838;stroke-linecap:square;stroke-miterlimit:40000;stroke-dasharray:none;stroke-opacity:1"
       id="unique-indicator"
       width="0.87351519"
       height="0.87351513"
       x="158.30574"
       y="187.62553"
       transform="rotate(-45)" /></g></svg>
